<?xml version="1.0" encoding="utf-8"?>
<!-- Generator: Adobe Illustrator 19.2.0, SVG Export Plug-In . SVG Version: 6.00 Build 0)  -->
<svg version="1.1" id="Layer_1" xmlns="http://www.w3.org/2000/svg" xmlns:xlink="http://www.w3.org/1999/xlink" x="0px" y="0px"
	 viewBox="0 0 1920 1080" style="enable-background:new 0 0 1920 1080;" xml:space="preserve">
<style type="text/css">
	.st0{fill:#7DA9BC;}
	.st1{fill:#A2D4DB;}
	.st2{fill:#7EBFC4;}
	.st3{fill:#C7EFF2;}
	.st4{fill:#FFFFFF;}
	.st5{fill:none;stroke:#7DA9BC;stroke-width:10;stroke-linecap:round;stroke-miterlimit:10;}
	.st6{fill:none;stroke:#C6556B;stroke-width:18;stroke-linecap:round;stroke-miterlimit:10;}
</style>
<g>
	<g>
		<path class="st0" d="M966.2,160.5c46,0,83.3,37.3,83.3,83.3s-37.3,83.3-83.3,83.3c-46,0-83.3-37.3-83.3-83.3
			S920.2,160.5,966.2,160.5 M966.2,150.5c-51.4,0-93.3,41.9-93.3,93.3s41.9,93.3,93.3,93.3s93.3-41.9,93.3-93.3
			S1017.7,150.5,966.2,150.5L966.2,150.5z"/>
	</g>
</g>
<rect x="928.7" y="296.1" class="st1" width="75.2" height="60.5"/>
<path class="st1" d="M1013.5,296.1h-94.4c-8.7,0-15.8-7.1-15.8-15.8v-47c0-8.7,7.1-15.8,15.8-15.8h94.4c8.7,0,15.8,7.1,15.8,15.8v47
	C1029.4,289,1022.3,296.1,1013.5,296.1z"/>
<rect x="915.2" y="217.4" class="st2" width="8" height="78.7"/>
<rect x="934" y="217.4" class="st2" width="8" height="78.7"/>
<rect x="952.8" y="217.4" class="st2" width="8" height="78.7"/>
<rect x="971.7" y="217.4" class="st2" width="8" height="78.7"/>
<rect x="990.5" y="217.4" class="st2" width="8" height="78.7"/>
<rect x="1009.3" y="217.4" class="st2" width="8" height="78.7"/>
<rect x="928.4" y="296.1" class="st2" width="75.8" height="16.5"/>
<rect x="809.6" y="337.3" transform="matrix(0.9057 -0.4239 0.4239 0.9057 -73.3855 387.3694)" class="st1" width="48.8" height="42.6"/>
<path class="st1" d="M849.9,336.9l-42.7,20c-5.7,2.7-12.5,0.2-15.2-5.5l-8.3-17.6c-2.7-5.7-0.2-12.5,5.5-15.2l42.7-20
	c5.7-2.7,12.5-0.2,15.2,5.5l8.3,17.6C858.1,327.4,855.6,334.2,849.9,336.9z"/>
<rect x="806.2" y="346.4" transform="matrix(0.9057 -0.4239 0.4239 0.9057 -70.6351 385.2496)" class="st2" width="48.8" height="10"/>
<path class="st1" d="M1084.6,336.9l42.7,20c5.7,2.7,12.5,0.2,15.2-5.5l8.3-17.6c2.7-5.7,0.2-12.5-5.5-15.2l-42.7-20
	c-5.7-2.7-12.5-0.2-15.2,5.5l-8.3,17.6C1076.4,327.4,1078.9,334.2,1084.6,336.9z"/>
<rect x="1076.1" y="337.3" transform="matrix(-0.9057 -0.4239 0.4239 -0.9057 1945.2288 1149.976)" class="st1" width="48.8" height="42.6"/>
<rect x="1079.5" y="346.4" transform="matrix(-0.9057 -0.4239 0.4239 -0.9057 1954.7584 1137.6111)" class="st2" width="48.8" height="10"/>
<circle class="st1" cx="960.8" cy="638" r="298.2"/>
<path class="st3" d="M960.8,355.6c162,0,293.9,129.3,298,290.3c0.1-2.6,0.1-5.2,0.1-7.9c0-164.7-133.5-298.2-298.2-298.2
	S662.6,473.4,662.6,638c0,2.6,0,5.3,0.1,7.9C666.9,484.9,798.8,355.6,960.8,355.6z"/>
<circle class="st4" cx="966.3" cy="636.6" r="241.6"/>
<g>
	<line class="st5" x1="966.3" y1="425" x2="966.3" y2="452.5"/>
	<line class="st5" x1="966.3" y1="823.5" x2="966.3" y2="851.1"/>
	<line class="st5" x1="1179.4" y1="638" x2="1151.8" y2="638"/>
	<line class="st5" x1="780.8" y1="638" x2="753.3" y2="638"/>
	<line class="st5" x1="1117" y1="788.7" x2="1097.5" y2="769.2"/>
	<line class="st5" x1="835.2" y1="506.9" x2="815.7" y2="487.4"/>
	<line class="st5" x1="815.7" y1="788.7" x2="835.2" y2="769.2"/>
	<line class="st5" x1="1097.5" y1="506.9" x2="1117" y2="487.4"/>
</g>
<line class="st6" x1="925.1" y1="636.6" x2="1089.2" y2="636.6"/>
<line class="st5" x1="966.3" y1="677.2" x2="966.3" y2="482.1"/>
<circle class="st2" cx="966.3" cy="636.6" r="32.1"/>
<circle class="st3" cx="966.3" cy="636.6" r="17.2"/>
</svg>
